<svg xmlns="http://www.w3.org/2000/svg" viewBox="0 0 162.36 162.36"><defs><style>.cls-1{fill:#0d41e1;}.cls-2{fill:#0a85ed;}.cls-3{fill:#09a6f3;}.cls-4{fill:#0c63e7;}</style></defs><title>janiscare-favicon</title><g id="Layer_2" data-name="Layer 2"><g id="Layer_1-2" data-name="Layer 1"><path class="cls-1" d="M82.63,162.36a33.93,33.93,0,0,1-33.9-33.85l-.08-6.69H64.42l.09,6.58v.07a18.12,18.12,0,1,0,36.23,0V99.34h15.78v29.13A33.93,33.93,0,0,1,82.63,162.36Z"/><path class="cls-2" d="M64.42,63H48.65V33.89a33.89,33.89,0,0,1,67.78,0l.09,6.68H100.74L100.66,34v-.07a18.12,18.12,0,1,0-36.24,0Z"/><path class="cls-3" d="M64.42,115.12H33.89a33.9,33.9,0,0,1,0-67.79l8.09-.08V63l-8,.09h-.07a18.12,18.12,0,1,0,0,36.23H64.42Z"/><path class="cls-4" d="M123.22,115.12V99.34l5.18-.08h.07a18.12,18.12,0,1,0,0-36.24H100.74V47.25h27.73a33.89,33.89,0,0,1,0,67.78Z"/><rect class="cls-4" x="71.13" y="47.25" width="22.91" height="15.77"/><rect class="cls-3" x="71.13" y="99.34" width="22.91" height="15.77"/><rect class="cls-1" x="97.17" y="73.29" width="22.91" height="15.77" transform="translate(189.81 -27.45) rotate(90)"/><rect class="cls-2" x="45.08" y="73.29" width="22.91" height="15.77" transform="translate(137.72 24.65) rotate(90)"/></g></g></svg>